<svg width="406" height="479" viewBox="0 0 406 479" fill="none" xmlns="http://www.w3.org/2000/svg">
<rect y="36" width="406" height="406" rx="45" fill="black"/>
<path d="M123 79.6C137.8 79.6 150.733 82.5333 161.8 88.4C172.867 94.2667 181.4 102.533 187.4 113.2C193.533 123.733 196.6 135.933 196.6 149.8C196.6 163.533 193.533 175.733 187.4 186.4C181.4 197.067 172.8 205.333 161.6 211.2C150.533 217.067 137.667 220 123 220H70.4V79.6H123ZM120.8 190.4C133.733 190.4 143.8 186.867 151 179.8C158.2 172.733 161.8 162.733 161.8 149.8C161.8 136.867 158.2 126.8 151 119.6C143.8 112.4 133.733 108.8 120.8 108.8H104.6V190.4H120.8Z" fill="white"/>
<path d="M125 258.6C139.8 258.6 152.733 261.533 163.8 267.4C174.867 273.267 183.4 281.533 189.4 292.2C195.533 302.733 198.6 314.933 198.6 328.8C198.6 342.533 195.533 354.733 189.4 365.4C183.4 376.067 174.8 384.333 163.6 390.2C152.533 396.067 139.667 399 125 399H72.4V258.6H125ZM122.8 369.4C135.733 369.4 145.8 365.867 153 358.8C160.2 351.733 163.8 341.733 163.8 328.8C163.8 315.867 160.2 305.8 153 298.6C145.8 291.4 135.733 287.8 122.8 287.8H106.6V369.4H122.8Z" fill="white"/>
<path d="M286.2 221.4C275.933 221.4 266.733 219.733 258.6 216.4C250.467 213.067 243.933 208.133 239 201.6C234.2 195.067 231.667 187.2 231.4 178H267.8C268.333 183.2 270.133 187.2 273.2 190C276.267 192.667 280.267 194 285.2 194C290.267 194 294.267 192.867 297.2 190.6C300.133 188.2 301.6 184.933 301.6 180.8C301.6 177.333 300.4 174.467 298 172.2C295.733 169.933 292.867 168.067 289.4 166.6C286.067 165.133 281.267 163.467 275 161.6C265.933 158.8 258.533 156 252.8 153.2C247.067 150.4 242.133 146.267 238 140.8C233.867 135.333 231.8 128.2 231.8 119.4C231.8 106.333 236.533 96.1333 246 88.8C255.467 81.3333 267.8 77.6 283 77.6C298.467 77.6 310.933 81.3333 320.4 88.8C329.867 96.1333 334.933 106.4 335.6 119.6H298.6C298.333 115.067 296.667 111.533 293.6 109C290.533 106.333 286.6 105 281.8 105C277.667 105 274.333 106.133 271.8 108.4C269.267 110.533 268 113.667 268 117.8C268 122.333 270.133 125.867 274.4 128.4C278.667 130.933 285.333 133.667 294.4 136.6C303.467 139.667 310.8 142.6 316.4 145.4C322.133 148.2 327.067 152.267 331.2 157.6C335.333 162.933 337.4 169.8 337.4 178.2C337.4 186.2 335.333 193.467 331.2 200C327.2 206.533 321.333 211.733 313.6 215.6C305.867 219.467 296.733 221.4 286.2 221.4Z" fill="white"/>
<path d="M283.8 400.4C294.067 400.4 303.267 398.733 311.4 395.4C319.533 392.067 326.067 387.133 331 380.6C335.8 374.067 338.333 366.2 338.6 357H302.2C301.667 362.2 299.867 366.2 296.8 369C293.733 371.667 289.733 373 284.8 373C279.733 373 275.733 371.867 272.8 369.6C269.867 367.2 268.4 363.933 268.4 359.8C268.4 356.333 269.6 353.467 272 351.2C274.267 348.933 277.133 347.067 280.6 345.6C283.933 344.133 288.733 342.467 295 340.6C304.067 337.8 311.467 335 317.2 332.2C322.933 329.4 327.867 325.267 332 319.8C336.133 314.333 338.2 307.2 338.2 298.4C338.2 285.333 333.467 275.133 324 267.8C314.533 260.333 302.2 256.6 287 256.6C271.533 256.6 259.067 260.333 249.6 267.8C240.133 275.133 235.067 285.4 234.4 298.6H271.4C271.667 294.067 273.333 290.533 276.4 288C279.467 285.333 283.4 284 288.2 284C292.333 284 295.667 285.133 298.2 287.4C300.733 289.533 302 292.667 302 296.8C302 301.333 299.867 304.867 295.6 307.4C291.333 309.933 284.667 312.667 275.6 315.6C266.533 318.667 259.2 321.6 253.6 324.4C247.867 327.2 242.933 331.267 238.8 336.6C234.667 341.933 232.6 348.8 232.6 357.2C232.6 365.2 234.667 372.467 238.8 379C242.8 385.533 248.667 390.733 256.4 394.6C264.133 398.467 273.267 400.4 283.8 400.4Z" fill="white"/>
</svg>
